<svg version="1" xmlns="http://www.w3.org/2000/svg" width="1600" height="1600" viewBox="0 0 1200.000000 1200.000000"><path d="M408 155.5l-95.5 55.1-.3 444.3c-.1 263 .2 444.1.7 443.9.5-.1 43.7-25 96-55.2l95.1-54.9V766.5l94.8-54.6c52.1-30.1 138.7-80 192.4-111l97.8-56.4V433.9c0-104.1-.1-110.7-1.7-112.1-1-.8-45-26.4-97.8-56.8-52.8-30.5-137.8-79.5-189-109-51.1-29.5-93.9-54.1-95-54.7-1.7-.9-16.8 7.6-97.5 54.2zm191.5 222.2c52.1 30.2 94.8 55.2 94.7 55.8 0 .8-172.5 101.2-186.4 108.6L504 544V433.5c0-60.8.2-110.5.4-110.5.1 0 43 24.6 95.1 54.7z"/></svg>